<svg id="Layer_1" data-name="Layer 1" xmlns="http://www.w3.org/2000/svg" viewBox="0 0 91.15 91.15"><defs><style>.cls-1{fill:#b76e4e;}.cls-2{fill:#fff;}</style></defs><circle class="cls-1" cx="45.57" cy="45.57" r="45.57"/><path class="cls-2" d="M75.05,34.32a6,6,0,0,0,0-.63l-18,18L45.27,62.53a.19.19,0,0,1-.26,0l-5.33-5.27h0L16.12,33.69c0,.06,0,.35,0,.63q0,10.84,0,21.68a7.68,7.68,0,0,0,3,6.09V40.27c.59.62,1.43,1.65,2.07,2.2a2.68,2.68,0,0,1,.94,2.33c0,5.84,0,11.68,0,17.52,0,.35,0,.69,0,1.12h3c0-5.64,0-11.58,0-17.11l.25.29c.65.68,1.26,1.4,2,2a2.24,2.24,0,0,1,.78,1.86c0,3.56,0,7.13,0,10.69,0,.22,0,0,0,.83,3.18-2.43,3.13-5.89,3-9.47l5.52,5.5,1,1h0c.69.7,1.39,1.41,2.1,2.09l3.34,3.31a2.84,2.84,0,0,0,2,.83,3.2,3.2,0,0,0,1.31-.34,2.21,2.21,0,0,0,.47-.33l12.87-12,.14,0c-.1,3.58-.22,7,3,9.4a7.29,7.29,0,0,0,.1-.76c0-3.56,0-7.13,0-10.69a2.21,2.21,0,0,1,.78-1.86c.7-.62,1.31-1.34,2-2l.09-.1h0l.13-.13V63.44h3c0-.43,0-.77,0-1.12,0-5.84,0-11.68,0-17.52A2.71,2.71,0,0,1,70,42.47a23.83,23.83,0,0,0,1.77-1.85c.3-.31.3-.37.3-.37,0,7,0,14.53,0,21.84a7.66,7.66,0,0,0,3-6.09Q75.07,45.16,75.05,34.32Z"/><path class="cls-2" d="M32.22,35.85l2,2,9.44,9.32.89.88a1.45,1.45,0,0,0,2.06,0l.9-.88,9.43-9.32,2-2,1.14-1.13L68.9,26a7.4,7.4,0,0,0-4.28.58l-.36.17L60.8,30.18,57,33.92l-2,2-9.44,9.34L36.13,35.9l-2-2q-1.91-1.86-3.79-3.74l-3.47-3.43-.36-.17A7.39,7.39,0,0,0,22.24,26l8.83,8.72Z"/><path class="cls-2" d="M44.53,57.12a1.48,1.48,0,0,0,2.08,0l.88-.88L73.82,29.9l-2-1.86L45.57,54.33,19.32,28l-2,1.86L43.66,56.24Z"/></svg>