<svg id="Layer_1" data-name="Layer 1" xmlns="http://www.w3.org/2000/svg" viewBox="0 0 93.1 62.14"><defs><style>.cls-1{fill:#b76e4e;}</style></defs><path class="cls-1" d="M93.1,13.3c0-.45,0-.89,0-1L64.66,40.73,46.08,57.84a.3.3,0,0,1-.41,0L37.25,49.5l0,0L.05,12.31c0,.1,0,.54,0,1Q0,30.42,0,47.54c0,3.8,1.57,6.85,4.77,9.61V22.7C5.7,23.68,7,25.3,8,26.17a4.26,4.26,0,0,1,1.49,3.68c-.06,9.22,0,18.44,0,27.66,0,.55,0,1.1.07,1.76H14.3c0-8.89,0-18.27,0-27l.4.45c1,1.07,2,2.22,3.11,3.2A3.49,3.49,0,0,1,19,38.86C19,44.48,19,50.1,19,55.72c0,.35,0,0,0,1.31,5-3.84,4.95-9.3,4.8-14.94l8.72,8.67,1.52,1.53h0c1.1,1.12,2.2,2.23,3.33,3.31l5.26,5.23a4.51,4.51,0,0,0,3.18,1.31A5.08,5.08,0,0,0,48,61.6a3.48,3.48,0,0,0,.74-.51L69,42.14l.22,0c-.15,5.64-.34,11,4.68,14.84a10.16,10.16,0,0,0,.16-1.21c0-5.62.07-11.24,0-16.86a3.49,3.49,0,0,1,1.23-2.94c1.12-1,2.09-2.13,3.12-3.2l.15-.16h0l.2-.2c0,8.73,0,18,0,26.92h4.7c0-.66.07-1.21.07-1.76,0-9.22.06-18.44,0-27.66a4.26,4.26,0,0,1,1.49-3.68,38.57,38.57,0,0,0,2.79-2.92c.48-.5.48-.58.48-.58,0,11.08,0,22.94,0,34.48,3.2-2.76,4.77-5.81,4.77-9.61Q93.12,30.41,93.1,13.3Z"/><path class="cls-1" d="M25.46,15.71l3.16,3.12L43.51,33.54l1.41,1.39a2.31,2.31,0,0,0,3.26,0l1.41-1.39,14.9-14.71,3.15-3.12,1.81-1.78L83.38.16a11.59,11.59,0,0,0-6.75.93l-.57.26L70.59,6.76l-6,5.92L61.45,15.8,46.55,30.54,31.65,15.8l-3.16-3.12-6-5.92L17,1.35c-.18-.09-.37-.18-.57-.26A11.59,11.59,0,0,0,9.72.16L23.65,13.93Z"/><path class="cls-1" d="M44.91,49.3a2.33,2.33,0,0,0,3.28,0l1.38-1.38L91.16,6.32,88,3.38C74.21,17.18,60.48,31,46.55,44.89L5.1,3.38,2,6.32l41.58,41.6Z"/></svg>